PathFileType	4	(X/Y/Z)	s05c0303.trc
DataRate	CameraRate	NumFrames	NumMarkers	Units	OrigDataRate	OrigDataStartFrame	OrigNumFrames
200	200	4	48	mm	200	500	2000
Frame#	Time	racr			lacr			c7			jug			rlel			rdr			llel			ldr			s2			lic			ric			lasi			rasi			rpsi			lpsi			rgt			lgt			rth1			rth2			rth3			rth4			rlfc			rsh1			rsh2			rsh3			rsh4			rlmal			rcal			rtoe			rmt5			rmt1			lth1			lth2			lth4			lth3			llfc			lmfc			lsh1			lsh2			lsh3			lsh4			llmal			lcal			ltoe			lmt5			SBIKE			LBIKE			RBIKE			
		X1	Y1	Z1	X2	Y2	Z2	X3	Y3	Z3	X4	Y4	Z4	X5	Y5	Z5	X6	Y6	Z6	X7	Y7	Z7	X8	Y8	Z8	X9	Y9	Z9	X10	Y10	Z10	X11	Y11	Z11	X12	Y12	Z12	X13	Y13	Z13	X14	Y14	Z14	X15	Y15	Z15	X16	Y16	Z16	X17	Y17	Z17	X18	Y18	Z18	X19	Y19	Z19	X20	Y20	Z20	X21	Y21	Z21	X22	Y22	Z22	X23	Y23	Z23	X24	Y24	Z24	X25	Y25	Z25	X26	Y26	Z26	X27	Y27	Z27	X28	Y28	Z28	X29	Y29	Z29	X30	Y30	Z30	X31	Y31	Z31	X32	Y32	Z32	X33	Y33	Z33	X34	Y34	Z34	X35	Y35	Z35	X36	Y36	Z36	X37	Y37	Z37	X38	Y38	Z38	X39	Y39	Z39	X40	Y40	Z40	X41	Y41	Z41	X42	Y42	Z42	X43	Y43	Z43	X44	Y44	Z44	X45	Y45	Z45	X46	Y46	Z46	X47	Y47	Z47	X48	Y48	Z48	
500	2.5000	706.093844	1316.713804	-131.386242	698.219313	1366.988513	-425.838213	690.403116	1423.753114	-282.468897	652.821587	1261.307082	-292.750918	531.503429	1101.485311	-21.178275	685.907384	937.987869	-87.100034	546.982795	1129.855537	-549.778022	684.867939	914.418414	-483.875431	128.980335	1208.445032	-324.433916	289.063823	1223.019919	-450.114024	264.316551	1208.883245	-165.436544	324.665406	1161.530521	-413.088679	308.461264	1146.932193	-191.483092	163.209662	1247.356477	-276.519608	173.385593	1258.908242	-363.526987	194.709954	1079.254552	-156.187198	226.049510	1118.824063	-490.464830	236.555436	972.231507	-131.003002	277.565600	893.496636	-121.049598	274.207840	805.408286	-127.342829	313.500252	901.641567	-124.626775	324.623758	665.359991	-142.174469	269.406036	573.015338	-109.718515	267.700970	484.532526	-119.124477	225.893349	409.523371	-121.155063	296.758946	478.957022	-143.923850	195.077337	279.141597	-126.510104	123.167855	253.377657	-170.500916	414.114655	190.193833	-153.126950	307.684387	184.167839	-91.735186	0.000000	0.000000	-0.000000	326.755838	1014.499256	-499.081355	403.837991	978.612074	-488.545862	425.776042	1003.594219	-471.822650	455.606467	904.444424	-489.394376	529.487229	787.262804	-451.506535	505.518045	781.869572	-343.243596	420.604980	734.124196	-476.555889	353.498814	679.739603	-462.222312	266.049264	663.906603	-464.249844	367.398633	654.842467	-435.643971	157.637986	611.450942	-456.547596	92.796314	644.930042	-413.929675	195.790022	368.184020	-395.722315	129.290763	451.439246	-464.432434	-174.464872	897.032541	-277.488817	-52.781916	79.242044	-473.931926	-52.719712	78.908376	-76.278866	
501	2.5050	708.354332	1317.225238	-134.227880	697.024534	1368.106615	-428.485182	690.987967	1424.611376	-284.905764	653.359248	1262.234199	-295.246095	534.744080	1102.505617	-20.477549	686.874815	937.491771	-87.454009	546.263794	1129.578360	-549.499480	685.038989	914.387763	-483.724149	129.365962	1208.047110	-321.004089	287.630542	1224.287812	-447.996691	266.994061	1206.653281	-163.382487	324.006711	1162.513444	-411.987676	310.558338	1144.337845	-190.195468	164.646320	1245.778890	-272.616459	173.073232	1258.581475	-359.606974	195.935477	1077.344320	-155.004918	225.212784	1120.378285	-488.685331	235.514792	970.254757	-130.384609	274.918234	890.707751	-120.441144	269.655526	802.592054	-127.181483	310.944376	897.970247	-124.405361	317.524010	661.822356	-142.447538	262.538499	569.455845	-109.903841	261.052536	480.988682	-119.229297	219.408909	405.934646	-121.224594	290.822311	475.496692	-143.791528	189.363777	275.430730	-126.597768	117.390058	250.472460	-170.520541	407.705673	183.904636	-153.141432	301.130385	179.271201	-91.711914	0.000000	0.000000	-0.000000	327.997975	1018.056940	-498.530882	405.849777	983.546165	-489.394740	427.475400	1008.649810	-472.285184	458.288577	909.719552	-489.985104	534.031950	793.785274	-453.543739	510.851090	787.257216	-345.133472	424.829105	740.343847	-477.514620	357.997831	685.968471	-463.117166	270.658235	669.897967	-464.541999	372.207077	660.999754	-436.783323	163.071188	617.173350	-456.253288	97.650609	649.878542	-413.535734	203.291406	374.191716	-395.817629	136.064180	456.860124	-464.384924	-174.327569	897.038760	-277.454956	-52.765390	79.254105	-473.928962	-52.667794	78.895480	-76.276005	
502	2.5100	710.580817	1317.614238	-137.314926	695.868401	1369.085985	-431.127120	691.475024	1425.193891	-287.872206	653.827738	1262.937051	-298.027843	537.852599	1103.493633	-19.772080	687.752186	937.013179	-87.833370	545.522972	1129.234371	-549.341892	684.420199	915.462088	-486.097296	129.929996	1207.886983	-317.495455	286.172042	1225.839536	-445.887839	269.886662	1204.897465	-161.159377	323.220177	1163.863928	-410.866395	312.424320	1142.641409	-189.244796	165.082952	1245.173345	-268.104732	172.753939	1258.991058	-355.626344	197.334324	1075.881203	-153.608825	224.137022	1122.451431	-486.787711	234.571498	968.595650	-129.725648	272.372613	888.185853	-119.899872	265.232724	800.374292	-126.939869	308.508534	894.673717	-124.127188	310.614271	658.849946	-142.668336	255.654623	566.526504	-110.067463	254.359489	477.989924	-119.414174	212.965681	402.868835	-121.346189	284.163026	472.640958	-143.974907	183.704895	272.345536	-126.569841	111.532679	248.145196	-170.689469	401.061056	177.877938	-153.152093	294.438991	174.583828	-91.758155	0.000000	0.000000	-0.000000	328.944229	1022.085644	-498.460775	407.266607	988.597425	-489.685182	428.677237	1013.937324	-472.468733	460.517215	915.304295	-490.596886	538.420768	800.420554	-455.407716	515.914620	793.004253	-346.953115	428.717555	747.037880	-478.673394	362.337456	692.285759	-463.807405	274.919786	675.891816	-464.590040	376.544752	667.265916	-437.894119	168.223320	622.445309	-455.832136	102.326900	654.514192	-413.194490	211.093427	380.124959	-395.919521	143.039934	462.097855	-464.404660	-173.796950	898.018026	-275.425372	-52.740542	79.223417	-473.950026	-52.668396	78.888916	-76.281169	
503	2.5150	712.800414	1317.874331	-140.451026	694.791223	1369.885208	-433.825717	692.027906	1425.604246	-290.537435	654.213849	1263.425265	-300.685101	540.876748	1104.537462	-19.143045	688.357755	936.677437	-88.077918	544.875764	1128.834406	-549.278185	684.501476	915.525517	-486.027416	130.472570	1208.357932	-313.370306	284.485657	1227.806711	-443.706479	272.922517	1203.418734	-159.124049	322.338812	1165.598903	-409.757464	314.297995	1141.393341	-188.421501	166.037020	1244.840043	-263.581077	172.635131	1259.455653	-351.285677	198.883344	1074.696945	-152.287303	222.816290	1124.966692	-484.715213	233.939910	967.479630	-128.556260	269.977218	886.116089	-119.565956	260.983974	798.470552	-126.580814	306.306132	891.847011	-123.762517	303.708523	656.458692	-142.851574	249.130949	564.154555	-110.229569	247.828608	475.742944	-119.568980	206.576194	400.373846	-121.495476	277.630885	470.414637	-144.053667	177.960750	269.921377	-126.657837	105.793035	246.705108	-170.781044	394.202324	171.928059	-153.114370	287.512473	170.338423	-91.717449	0.000000	0.000000	-0.000000	329.247940	1026.291864	-498.388541	408.120266	993.801847	-489.846074	429.142242	1019.352615	-472.482844	462.331182	921.299522	-490.867923	542.211603	807.573620	-457.377726	521.540321	799.714096	-348.042957	432.285821	753.782045	-479.663377	366.305964	698.680360	-464.533508	278.972403	681.816288	-464.469421	380.925525	673.440980	-438.978189	173.080752	627.067026	-454.878344	106.726606	658.483444	-412.893810	219.321159	385.742295	-395.946906	150.259687	466.927283	-464.469236	-173.640096	897.761493	-275.661272	-52.727358	79.190069	-473.969049	-52.615631	78.762403	-76.354975	
